<?xml version="1.0" encoding="UTF-8"?>
<svg width="600px" height="600px" viewBox="0 0 600 600" version="1.1" xmlns="http://www.w3.org/2000/svg" xmlns:xlink="http://www.w3.org/1999/xlink">
    <!-- Generator: Sketch 52.6 (67491) - http://www.bohemiancoding.com/sketch -->
    <title>studiolist-logo-mobile</title>
    <desc>Created with Sketch.</desc>
    <g id="studiolist-logo-mobile" stroke="none" stroke-width="1" fill="none" fill-rule="evenodd">
        <path d="M68.6780772,334.453635 C68.6780772,323.591882 38,316.844429 38,295.285496 C38,282.778023 48.9916105,272.73913 61.2956522,272.73913 C73.7637477,272.73913 83.9350888,282.778023 83.9350888,295.285496 L83.9350888,298.741508 L68.5140233,298.741508 L68.5140233,295.285496 C68.5140233,291.335768 65.0688916,287.879755 61.4597061,287.879755 C57.5224127,287.879755 53.7491733,291.335768 53.7491733,295.285496 C53.7491733,306.970109 84.5913043,313.059273 84.5913043,334.453635 C84.5913043,346.467391 73.5996938,357 61.2956522,357 C48.8275566,357 38,346.961107 38,334.453635 L38,330.83305 L53.4210655,330.83305 L53.4210655,334.453635 C53.4210655,338.403363 57.0302511,342.023947 61.1315983,342.023947 C65.3969994,342.023947 68.6780772,338.403363 68.6780772,334.453635 Z M127.934505,341.75205 L127.934505,357 C113.876966,357 102.434783,346.724208 102.434783,334.293814 L102.434783,251.921739 L118.12692,251.921739 L118.12692,273.136278 L133.165217,273.136278 L133.165217,288.05275 L118.12692,288.05275 L118.12692,334.293814 C118.12692,338.105802 122.703793,341.75205 127.934505,341.75205 Z M148.034783,334.454683 L148.034783,273.730435 L163.783956,273.730435 L163.783956,334.454683 C163.783956,338.239663 167.229088,342.024643 171.166381,342.024643 C175.267728,342.024643 178.876914,338.239663 178.876914,334.454683 L178.876914,273.730435 L194.626087,273.730435 L194.626087,334.454683 C194.626087,346.79701 183.634476,357 171.330435,357 C158.862339,357 148.034783,346.79701 148.034783,334.454683 Z M235.115983,357 C225.600857,357 213.46087,349.4 213.46087,334.86087 L213.46087,295.53913 C213.46087,282.817391 224.124372,272.573913 236.100306,272.573913 C241.350031,272.573913 244.303001,275.382609 244.303001,275.382609 L244.303001,243 L260.052174,243 L260.052174,356.008696 L247.420024,356.008696 L246.435701,352.704348 C246.435701,352.704348 242.006246,357 235.115983,357 Z M236.110019,342.130435 C240.635539,342.130435 244.191304,338.506633 244.191304,334.553396 L244.191304,295.185735 C244.191304,291.232497 240.797164,287.608696 236.918147,287.608696 C232.877505,287.608696 229.321739,291.232497 229.321739,295.185735 L229.321739,334.553396 C229.321739,338.506633 233.03913,342.130435 236.110019,342.130435 Z M306.643478,341.363165 L306.643478,356.008696 L299.704348,356.008696 C290.617391,356.008696 283.843478,348.768209 283.843478,340.046713 L283.843478,273.730435 L299.53913,273.730435 L299.53913,338.894817 C299.53913,340.046713 300.365217,341.034052 301.521739,341.034052 L306.643478,341.363165 Z M280.869565,253.408696 C280.869565,247.700701 285.570266,243 291.278261,243 C296.986255,243 301.686957,247.700701 301.686957,253.408696 C301.686957,259.11669 296.986255,263.817391 291.278261,263.817391 C285.570266,263.817391 280.869565,259.11669 280.869565,253.408696 Z M369.095652,295.285496 L369.095652,334.453635 C369.095652,346.961107 358.432149,357 345.8,357 C333.003797,357 322.504348,346.961107 322.504348,334.453635 L322.504348,295.285496 C322.504348,282.942595 333.003797,272.73913 345.8,272.73913 C358.432149,272.73913 369.095652,282.942595 369.095652,295.285496 Z M353.234783,334.507334 L353.234783,295.066076 C353.234783,291.254526 349.840643,287.608696 345.638374,287.608696 C341.759357,287.608696 338.365217,291.254526 338.365217,295.066076 L338.365217,334.507334 C338.365217,338.484604 341.759357,342.130435 345.638374,342.130435 C349.840643,342.130435 353.234783,338.484604 353.234783,334.507334 Z M412.713043,341.325814 L412.713043,356.008696 L405.773913,356.008696 C396.686957,356.008696 389.913043,348.749743 389.913043,340.006004 L389.913043,243 L405.608696,243 L405.608696,338.851171 C405.608696,340.006004 406.434783,340.995862 407.591304,340.995862 L412.713043,341.325814 Z M453.356522,341.363165 L453.356522,356.008696 L446.417391,356.008696 C437.330435,356.008696 430.556522,348.768209 430.556522,340.046713 L430.556522,273.730435 L446.252174,273.730435 L446.252174,338.894817 C446.252174,340.046713 447.078261,341.034052 448.234783,341.034052 L453.356522,341.363165 Z M428.573913,253.408696 C428.573913,247.700701 433.274614,243 438.982609,243 C444.690603,243 449.391304,247.700701 449.391304,253.408696 C449.391304,259.11669 444.690603,263.817391 438.982609,263.817391 C433.274614,263.817391 428.573913,259.11669 428.573913,253.408696 Z M497.91286,334.453635 C497.91286,323.591882 467.234783,316.844429 467.234783,295.285496 C467.234783,282.778023 478.226393,272.73913 490.530435,272.73913 C502.99853,272.73913 513.169871,282.778023 513.169871,295.285496 L513.169871,298.741508 L497.748806,298.741508 L497.748806,295.285496 C497.748806,291.335768 494.303674,287.879755 490.694489,287.879755 C486.757195,287.879755 482.983956,291.335768 482.983956,295.285496 C482.983956,306.970109 513.826087,313.059273 513.826087,334.453635 C513.826087,346.467391 502.834476,357 490.530435,357 C478.062339,357 467.234783,346.961107 467.234783,334.453635 L467.234783,330.83305 L482.655848,330.83305 L482.655848,334.453635 C482.655848,338.403363 486.265034,342.023947 490.366381,342.023947 C494.631782,342.023947 497.91286,338.403363 497.91286,334.453635 Z M557.169288,341.75205 L557.169288,357 C543.111748,357 531.669565,346.724208 531.669565,334.293814 L531.669565,251.921739 L547.361702,251.921739 L547.361702,273.136278 L562.4,273.136278 L562.4,288.05275 L547.361702,288.05275 L547.361702,334.293814 C547.361702,338.105802 551.938575,341.75205 557.169288,341.75205 Z" id="studiolist" fill="#000000"></path>
    </g>
</svg>