<?xml version="1.0" encoding="UTF-8"?>
<svg width="336px" height="80px" viewBox="0 0 336 80" version="1.1" xmlns="http://www.w3.org/2000/svg" xmlns:xlink="http://www.w3.org/1999/xlink">
    <!-- Generator: Sketch 52.6 (67491) - http://www.bohemiancoding.com/sketch -->
    <title>studiolist-logo</title>
    <desc>Created with Sketch.</desc>
    <g id="studiolist-logo" stroke="none" stroke-width="1" fill="none" fill-rule="evenodd">
        <path d="M28.7,60.4 C28.7,53.8 10,49.7 10,36.6 C10,29 16.7,22.9 24.2,22.9 C31.8,22.9 38,29 38,36.6 L38,38.7 L28.6,38.7 L28.6,36.6 C28.6,34.2 26.5,32.1 24.3,32.1 C21.9,32.1 19.6,34.2 19.6,36.6 C19.6,43.7 38.4,47.4 38.4,60.4 C38.4,67.7 31.7,74.1 24.2,74.1 C16.6,74.1 10,68 10,60.4 L10,58.2 L19.4,58.2 L19.4,60.4 C19.4,62.8 21.6,65 24.1,65 C26.7,65 28.7,62.8 28.7,60.4 Z M64.5,64.9 L64.5,74.1 C55.9,74.1 48.9,67.9 48.9,60.4 L48.9,10.7 L58.5,10.7 L58.5,23.5 L67.7,23.5 L67.7,32.5 L58.5,32.5 L58.5,60.4 C58.5,62.7 61.3,64.9 64.5,64.9 Z M76.2,60.4 L76.2,23.5 L85.8,23.5 L85.8,60.4 C85.8,62.7 87.9,65 90.3,65 C92.8,65 95,62.7 95,60.4 L95,23.5 L104.6,23.5 L104.6,60.4 C104.6,67.9 97.9,74.1 90.4,74.1 C82.8,74.1 76.2,67.9 76.2,60.4 Z M129.3,74.1 C123.5,74.1 116.1,69.5 116.1,60.7 L116.1,36.9 C116.1,29.2 122.6,23 129.9,23 C133.1,23 134.9,24.7 134.9,24.7 L134.9,5.1 L144.5,5.1 L144.5,73.5 L136.8,73.5 L136.2,71.5 C136.2,71.5 133.5,74.1 129.3,74.1 Z M129.9,65.2 C132.7,65.2 134.9,63 134.9,60.6 L134.9,36.7 C134.9,34.3 132.8,32.1 130.4,32.1 C127.9,32.1 125.7,34.3 125.7,36.7 L125.7,60.6 C125.7,63 128,65.2 129.9,65.2 Z M172.2,64.6 L172.2,73.5 L168,73.5 C162.5,73.5 158.4,69.1 158.4,63.8 L158.4,23.5 L167.9,23.5 L167.9,63.1 C167.9,63.8 168.4,64.4 169.1,64.4 L172.2,64.6 Z M157,11.6 C157,8.2 159.8,5.4 163.2,5.4 C166.6,5.4 169.4,8.2 169.4,11.6 C169.4,15 166.6,17.8 163.2,17.8 C159.8,17.8 157,15 157,11.6 Z M210.1,36.6 L210.1,60.4 C210.1,68 203.6,74.1 195.9,74.1 C188.1,74.1 181.7,68 181.7,60.4 L181.7,36.6 C181.7,29.1 188.1,22.9 195.9,22.9 C203.6,22.9 210.1,29.1 210.1,36.6 Z M200.5,60.4 L200.5,36.6 C200.5,34.3 198.4,32.1 195.8,32.1 C193.4,32.1 191.3,34.3 191.3,36.6 L191.3,60.4 C191.3,62.8 193.4,65 195.8,65 C198.4,65 200.5,62.8 200.5,60.4 Z M236.4,64.6 L236.4,73.5 L232.2,73.5 C226.7,73.5 222.6,69.1 222.6,63.8 L222.6,5 L232.1,5 L232.1,63.1 C232.1,63.8 232.6,64.4 233.3,64.4 L236.4,64.6 Z M261.1,64.6 L261.1,73.5 L256.9,73.5 C251.4,73.5 247.3,69.1 247.3,63.8 L247.3,23.5 L256.8,23.5 L256.8,63.1 C256.8,63.8 257.3,64.4 258,64.4 L261.1,64.6 Z M245.9,11.6 C245.9,8.2 248.7,5.4 252.1,5.4 C255.5,5.4 258.3,8.2 258.3,11.6 C258.3,15 255.5,17.8 252.1,17.8 C248.7,17.8 245.9,15 245.9,11.6 Z M287.8,60.4 C287.8,53.8 269.1,49.7 269.1,36.6 C269.1,29 275.8,22.9 283.3,22.9 C290.9,22.9 297.1,29 297.1,36.6 L297.1,38.7 L287.7,38.7 L287.7,36.6 C287.7,34.2 285.6,32.1 283.4,32.1 C281,32.1 278.7,34.2 278.7,36.6 C278.7,43.7 297.5,47.4 297.5,60.4 C297.5,67.7 290.8,74.1 283.3,74.1 C275.7,74.1 269.1,68 269.1,60.4 L269.1,58.2 L278.5,58.2 L278.5,60.4 C278.5,62.8 280.7,65 283.2,65 C285.8,65 287.8,62.8 287.8,60.4 Z M323.6,64.9 L323.6,74.1 C315,74.1 308,67.9 308,60.4 L308,10.7 L317.6,10.7 L317.6,23.5 L326.8,23.5 L326.8,32.5 L317.6,32.5 L317.6,60.4 C317.6,62.7 320.4,64.9 323.6,64.9 Z" id="studiolist" fill="#000000"></path>
    </g>
</svg>